<?xml version="1.0" encoding="utf-8"?>
<!-- Generator: Adobe Illustrator 16.0.0, SVG Export Plug-In . SVG Version: 6.00 Build 0)  -->
<!DOCTYPE svg PUBLIC "-//W3C//DTD SVG 1.1//EN" "http://www.w3.org/Graphics/SVG/1.1/DTD/svg11.dtd">
<svg version="1.1" id="Layer_1" xmlns="http://www.w3.org/2000/svg" xmlns:xlink="http://www.w3.org/1999/xlink" x="0px" y="0px"
	 width="100px" height="100px" viewBox="0 0 100 100" enable-background="new 0 0 100 100" xml:space="preserve">
<g>
	<path fill="#FA5F62" d="M89.23,42c-0.991-5-2.947-9.83-5.664-13.937l4.82-4.91L77.318,12.04l-5.283,4.807
		C67.976,14.173,63,12.22,58,11.225V4H43v7.264c-5,1.034-9.491,3.023-13.574,5.769l-4.975-5.038L13.414,23.063l5.152,5.317
		C15.958,32.408,14.091,37,13.123,42H5v15h8.208c1.011,5,2.919,9.446,5.538,13.422l-5.299,5.373l11.068,11.106l5.167-5.273
		C33.698,84.289,38,86.237,43,87.249V95h15v-7.713c5-0.972,9.786-2.847,13.781-5.436l5.311,5.087l11.181-11.071l-4.929-5.133
		C86.07,66.685,88.105,62,89.146,57H96V42H89.23z"/>
	<g>
		<g>
			<path fill="#FFFFFF" d="M29.879,61.172V37.828h4.65l5.525,16.528c0.509,1.54,0.881,2.691,1.114,3.456
				c0.266-0.85,0.68-2.097,1.242-3.742L48,37.828h4.156v23.344h-2.978V41.634l-6.783,19.538h-2.787l-6.751-19.873v19.873H29.879z"/>
		</g>
		<g>
			<path fill="#FFFFFF" d="M52.809,61.172V37.828h3.089v9.586h12.134v-9.586h3.089v23.344h-3.089V50.169H55.897v11.003H52.809z"/>
		</g>
	</g>
</g>
</svg>
